<svg width="196" height="40" viewBox="0 0 196 40" fill="none" xmlns="http://www.w3.org/2000/svg">
<path d="M29.9801 17.8253C28.8759 18.9538 28.3241 20.5235 28.4748 22.1072L28.4489 22.0809C28.6038 23.9447 27.9419 25.783 26.64 27.1056C25.338 28.4281 23.5282 29.1004 21.6935 28.9431L21.7194 28.9694C19.4979 28.7594 17.3853 29.9868 16.4373 32.0384C15.4892 34.0899 15.9094 36.5251 17.4877 38.1269C19.066 39.7287 21.4636 40.1533 23.4824 39.1884C25.5012 38.2235 26.7076 36.0764 26.4988 33.82L26.5262 33.8463C26.3713 31.9826 27.0331 30.1442 28.3351 28.8217C29.6371 27.4991 31.4468 26.8268 33.2816 26.9841L33.2542 26.9578C35.6957 27.1809 37.9675 25.6687 38.7408 23.3057C39.5141 20.9428 38.5858 18.3499 36.4988 17.0437C34.4118 15.7375 31.7144 16.0611 29.9845 17.8253H29.9801Z" fill="#5454D4"/>
<path d="M19.3636 25.5222L19.3362 25.4959C20.8963 25.6556 22.4446 25.0952 23.5537 23.9693C24.6629 22.8435 25.2158 21.2712 25.0597 19.6863L25.0871 19.7126C24.9322 17.8489 25.594 16.0105 26.896 14.688C28.198 13.3654 30.0077 12.6931 31.8425 12.8504L31.8151 12.8241C34.0368 13.0361 36.1507 11.8099 37.1002 9.75867C38.0496 7.70739 37.6308 5.27156 36.0529 3.66876C34.475 2.06595 32.0771 1.64045 30.0578 2.60494C28.0384 3.56943 26.8314 5.71674 27.04 7.97352L27.0141 7.94574C27.1695 9.80964 26.5078 11.6483 25.2057 12.971C23.9036 14.2937 22.0936 14.9658 20.2587 14.8079L20.2846 14.8357C18.7245 14.676 17.1763 15.2364 16.0671 16.3623C14.9579 17.4881 14.4051 19.0604 14.5611 20.6453L14.5352 20.619C14.6896 22.4826 14.0276 24.3207 12.7257 25.6431C11.4239 26.9655 9.61444 27.638 7.77982 27.4812L7.80572 27.5075C5.58406 27.2956 3.47017 28.5217 2.52069 30.573C1.57121 32.6242 1.99009 35.0601 3.56795 36.6629C5.14581 38.2657 7.54373 38.6912 9.56308 37.7267C11.5824 36.7622 12.7895 34.6149 12.5808 32.3581L12.6082 32.3844C12.4533 30.5206 13.1151 28.6823 14.4171 27.3597C15.7191 26.0372 17.5288 25.3649 19.3636 25.5222Z" fill="#FF7143"/>
<path d="M9.71834 22.5883C10.8227 21.4599 11.3741 19.89 11.2223 18.3064L11.2496 18.3327C11.0946 16.4684 11.7568 14.6295 13.0594 13.3068C14.3621 11.9841 16.1726 11.3123 18.0079 11.4705L17.9805 11.4442C20.2014 11.6555 22.3143 10.4295 23.2632 8.3789C24.2121 6.32827 23.7932 3.89341 22.216 2.29119C20.6387 0.688979 18.2417 0.263501 16.223 1.2274C14.2043 2.19131 12.9974 4.33759 13.2054 6.59358L13.1795 6.56727C13.3344 8.43103 12.6726 10.2694 11.3706 11.5919C10.0686 12.9145 8.25887 13.5868 6.42412 13.4294L6.45002 13.4558C4.00865 13.2334 1.73732 14.746 0.964475 17.1089C0.191628 19.4718 1.12027 22.0644 3.20726 23.3703C5.29425 24.6762 7.99139 24.3524 9.72122 22.5883H9.71834Z" fill="#5454D4"/>
<path d="M54.299 8.0072H58.5733V29.1361H54.299V8.0072Z" fill="#19191B"/>
<path fill-rule="evenodd" clip-rule="evenodd" d="M65.6344 14.7925C62.8137 15.9895 60.9817 18.7959 60.9939 21.9011C60.9791 23.9373 61.7709 25.8939 63.1911 27.3309C64.6114 28.7678 66.5408 29.5642 68.5452 29.541C71.6021 29.541 74.3574 27.6688 75.5244 24.7987C76.6914 21.9286 76.0398 18.627 73.8739 16.4356C71.708 14.2443 68.4551 13.5956 65.6344 14.7925ZM68.4845 18.6634C70.283 18.6297 71.7724 20.0744 71.8221 21.901C71.8707 22.8065 71.5442 23.6914 70.9218 24.3414C70.2993 24.9915 69.4376 25.3475 68.5452 25.3233C66.7463 25.3234 65.2834 23.8511 65.2667 22.0239C65.2501 20.1967 66.6859 18.6972 68.4845 18.6634Z" fill="#19191B"/>
<path fill-rule="evenodd" clip-rule="evenodd" d="M93.1317 28.4065V14.6646L88.9711 14.6617V16.1382C87.9561 14.8767 86.4125 14.1786 84.8105 14.2567C80.9025 14.3819 77.7983 17.6362 77.7983 21.6079C77.7983 25.5796 80.9025 28.8339 84.8105 28.9591C86.4125 29.0372 87.9561 28.3391 88.9711 27.0776V28.4006C89.0426 29.2735 88.7198 30.1322 88.0936 30.7344C87.4675 31.3366 86.6058 31.6172 85.7517 31.497C84.4006 31.637 83.1059 30.9104 82.5035 29.674L78.8567 31.8157C80.2835 34.177 82.8893 35.531 85.6092 35.3242C89.3985 35.3242 93.1317 33.2688 93.1317 28.4065ZM86.9415 18.2656C88.2273 18.8546 89.0313 20.1786 88.9725 21.6102C88.9991 22.5345 88.6397 23.4272 87.9831 24.0678C87.3265 24.7083 86.4339 25.037 85.5258 24.9726C84.1153 24.9743 82.8454 24.1047 82.3181 22.7758C81.7907 21.4469 82.1118 19.9258 83.1291 18.9334C84.1465 17.941 85.6557 17.6766 86.9415 18.2656Z" fill="#19191B"/>
<path fill-rule="evenodd" clip-rule="evenodd" d="M100.193 14.7925C97.3721 15.9895 95.5401 18.7959 95.5523 21.9011C95.5375 23.9373 96.3293 25.8939 97.7496 27.3309C99.1698 28.7678 101.099 29.5642 103.104 29.541C106.161 29.541 108.916 27.6688 110.083 24.7987C111.25 21.9286 110.598 18.627 108.432 16.4356C106.266 14.2443 103.014 13.5956 100.193 14.7925ZM103.043 18.6634C104.841 18.6297 106.331 20.0744 106.381 21.901C106.429 22.8065 106.103 23.6914 105.48 24.3414C104.858 24.9915 103.996 25.3475 103.104 25.3233C101.305 25.3234 99.8418 23.8511 99.8251 22.0239C99.8085 20.1967 101.244 18.6972 103.043 18.6634Z" fill="#19191B"/>
<path fill-rule="evenodd" clip-rule="evenodd" d="M114.231 8.37941C113.273 8.78263 112.648 9.73255 112.648 10.7862C112.662 12.219 113.802 13.3771 115.213 13.3913C116.25 13.3913 117.185 12.7566 117.582 11.7832C117.979 10.8097 117.76 9.68918 117.026 8.94413C116.293 8.19907 115.19 7.97619 114.231 8.37941ZM117.356 14.6646H113.08L113.074 29.1375H117.356V14.6646Z" fill="#19191B"/>
<path fill-rule="evenodd" clip-rule="evenodd" d="M133.97 27.1595C135.248 25.7255 135.911 23.833 135.811 21.9011C135.912 19.9689 135.249 18.0757 133.971 16.6413C132.693 15.2069 130.904 14.3497 129.001 14.2597C127.397 14.1709 125.839 14.8187 124.757 16.0242V14.6647H120.483V34.9252H124.757V27.775C125.839 28.9815 127.397 29.6299 129.001 29.541C130.903 29.4507 132.692 28.5936 133.97 27.1595ZM128.091 18.5435C129.952 18.5119 131.49 20.0106 131.537 21.9011C131.601 22.8405 131.268 23.7633 130.621 24.4376C129.974 25.1118 129.074 25.4734 128.148 25.4316C126.286 25.4318 124.772 23.9073 124.757 22.0163C124.741 20.1253 126.229 18.5752 128.091 18.5435Z" fill="#19191B"/>
<path d="M149.001 24.7943C149.001 28.123 146.153 29.5411 143.076 29.5411C140.532 29.7751 138.105 28.4106 136.95 26.0968L140.653 23.9551C140.961 25.0323 141.969 25.7439 143.07 25.6626C144.095 25.6626 144.609 25.3439 144.609 24.7665C144.609 23.173 137.599 24.0136 137.599 19.0066C137.599 15.8503 140.221 14.2598 143.184 14.2598C145.453 14.1868 147.581 15.3731 148.739 17.3561L145.092 19.353C144.765 18.5781 144.014 18.0767 143.184 18.0797C142.443 18.0797 141.987 18.3721 141.987 18.8896C141.992 20.5401 149.001 19.4393 149.001 24.7943Z" fill="#19191B"/>
<path d="M164.614 14.6647V29.1375H160.34V27.7765C159.34 28.9948 157.825 29.6516 156.267 29.5425C153.389 29.5425 150.942 27.4593 150.942 23.5487V14.6647H155.217V22.9127C155.144 23.6104 155.378 24.3051 155.855 24.812C156.333 25.3189 157.006 25.5867 157.695 25.5442C159.262 25.5442 160.344 24.6188 160.344 22.5633V14.6691L164.614 14.6647Z" fill="#19191B"/>
<path d="M189.123 20.2506V29.1361H184.849V20.6263C184.849 19.179 184.165 18.2536 182.798 18.2536C181.373 18.2536 180.575 19.2667 180.575 20.9742V29.1361H176.302V20.6263C176.302 19.179 175.618 18.2536 174.25 18.2536C172.825 18.2536 172.028 19.2667 172.028 20.9742V29.1361H167.753V14.6632H172.028V15.9935C172.928 14.7943 174.365 14.1409 175.846 14.2583C177.333 14.1843 178.75 14.9092 179.577 16.1675C180.54 14.852 182.1 14.131 183.709 14.2583C186.98 14.2597 189.123 16.6324 189.123 20.2506Z" fill="#19191B"/>
<path d="M192.738 14.5756C194.49 14.5756 195.91 13.1331 195.91 11.3536C195.91 9.57409 194.49 8.13153 192.738 8.13153C190.987 8.13153 189.566 9.57409 189.566 11.3536C189.566 13.1331 190.987 14.5756 192.738 14.5756Z" fill="#19191B"/>
</svg>
